<svg width="24" height="24" viewBox="0 0 24 24" fill="none" xmlns="http://www.w3.org/2000/svg">
<path fill-rule="evenodd" clip-rule="evenodd" d="M4.92888 17.6569C4.53836 18.0474 4.53836 18.6806 4.92888 19.0711C5.3194 19.4616 5.95257 19.4616 6.34309 19.0711L12 13.4143L17.6568 19.0711C18.0473 19.4616 18.6805 19.4616 19.071 19.0711C19.4615 18.6806 19.4615 18.0474 19.071 17.6569L13.4142 12L19.071 6.3432C19.4615 5.95268 19.4615 5.31951 19.071 4.92899C18.6805 4.53846 18.0473 4.53846 17.6568 4.92899L12 10.5858L6.3431 4.92899C5.95258 4.53846 5.31941 4.53846 4.92889 4.92899C4.53837 5.31951 4.53837 5.95268 4.92889 6.3432L10.5857 12L4.92888 17.6569Z" fill="#A0A0A4"/>
</svg>
