<svg width="32" height="24" viewBox="0 0 32 24" fill="none" xmlns="http://www.w3.org/2000/svg">
<rect width="32" height="24" rx="4" fill="#F6F6FA"/>
<path fill-rule="evenodd" clip-rule="evenodd" d="M18.8883 17.5017H12.7637V6.49487H18.8884L18.8883 17.5017Z" fill="#6C6BBD"/>
<path fill-rule="evenodd" clip-rule="evenodd" d="M13.1515 12.0001C13.1515 9.76738 14.1969 7.77845 15.8248 6.49668C14.5928 5.52523 13.0681 4.99766 11.4992 5.00001C7.63356 5.00001 4.5 8.13401 4.5 12.0001C4.5 15.8662 7.63356 19.0002 11.4992 19.0002C13.0681 19.0025 14.5929 18.4749 15.8249 17.5035C14.1971 16.2219 13.1515 14.2329 13.1515 12.0001Z" fill="#EB001B"/>
<path fill-rule="evenodd" clip-rule="evenodd" d="M27.1497 12.0001C27.1497 15.8662 24.0161 19.0002 20.1505 19.0002C18.5814 19.0024 17.0565 18.4749 15.8242 17.5035C17.4526 16.2217 18.498 14.2329 18.498 12.0001C18.498 9.76723 17.4526 7.77845 15.8242 6.49668C17.0564 5.52523 18.5813 4.99773 20.1504 5.00001C24.016 5.00001 27.1496 8.13401 27.1496 12.0001" fill="#0099DF"/>
</svg>
