<svg width="32" height="24" viewBox="0 0 32 24" fill="none" xmlns="http://www.w3.org/2000/svg">
<rect width="32" height="24" rx="4" fill="#F6F6FA"/>
<path fill-rule="evenodd" clip-rule="evenodd" d="M26.9337 16.3367V16.0649H26.8629L26.781 16.2514L26.6996 16.0649H26.6286V16.3367H26.6788V16.132L26.7554 16.3086H26.8075L26.884 16.1315V16.3367H26.9339H26.9337ZM26.4846 16.3367V16.1115H26.5752V16.0656H26.3438V16.1115H26.4343V16.3367H26.4846Z" fill="#F79410"/>
<path fill-rule="evenodd" clip-rule="evenodd" d="M18.8883 17.5014H12.7637V6.49463H18.8884L18.8883 17.5014Z" fill="#FF5F00"/>
<path fill-rule="evenodd" clip-rule="evenodd" d="M13.1515 11.9999C13.1515 9.76713 14.1969 7.77821 15.8248 6.49643C14.5928 5.52498 13.0681 4.99741 11.4992 4.99976C7.63356 4.99976 4.5 8.13376 4.5 11.9999C4.5 15.8659 7.63356 18.9999 11.4992 18.9999C13.0681 19.0023 14.5929 18.4747 15.8249 17.5032C14.1971 16.2217 13.1515 14.2327 13.1515 11.9999Z" fill="#EB001B"/>
<path fill-rule="evenodd" clip-rule="evenodd" d="M27.1497 11.9999C27.1497 15.8659 24.0161 18.9999 20.1505 18.9999C18.5814 19.0022 17.0565 18.4747 15.8242 17.5032C17.4526 16.2215 18.498 14.2327 18.498 11.9999C18.498 9.76699 17.4526 7.77821 15.8242 6.49643C17.0564 5.52498 18.5813 4.99749 20.1504 4.99976C24.016 4.99976 27.1496 8.13376 27.1496 11.9999" fill="#F79410"/>
</svg>
