<svg width="32" height="25" viewBox="0 0 32 25" fill="none" xmlns="http://www.w3.org/2000/svg">
<rect y="0.333252" width="32" height="24" rx="4" fill="#F6F6FA"/>
<path d="M17.6813 9.17708L15.8645 13.0916H15.6806V8.33362H13.0852V16.3357H15.2372C15.8212 16.3357 16.3403 16.0005 16.589 15.4814L18.4166 11.5777H18.6005V16.3357H21.1959V8.33362H19.0114C18.4491 8.33362 17.9192 8.66884 17.6813 9.17708Z" fill="#319B42"/>
<path d="M7.97243 9.38254L6.90182 13.0916H6.71798L5.63656 9.38254C5.45271 8.75535 4.87956 8.33362 4.2307 8.33362H1.66772V16.3357H4.26315V11.5777H4.44699L5.93935 16.3357H7.66963L9.162 11.5777H9.34584V16.3357H11.9413V8.33362H9.37829C8.72943 8.33362 8.14546 8.75535 7.97243 9.38254Z" fill="#319B42"/>
<path d="M22.3244 11.9007V16.3357H24.9207V13.7396H27.7116C28.9232 13.7396 29.9509 12.9716 30.3295 11.9007H22.3244Z" fill="#319B42"/>
<path d="M27.6358 8.33362H21.8591C22.2161 10.2374 23.882 11.5787 25.8833 11.5787H30.3727C30.4051 11.4057 30.4267 11.211 30.4267 11.0163C30.4267 9.46941 29.1827 8.33362 27.6358 8.33362Z" fill="url(#paint0_linear_13_253)"/>
<defs>
<linearGradient id="paint0_linear_13_253" x1="21.8591" y1="9.95618" x2="30.4267" y2="9.95618" gradientUnits="userSpaceOnUse">
<stop stop-color="#00A3E1"/>
<stop offset="0.3042" stop-color="#009ADD"/>
<stop offset="0.7987" stop-color="#0082D4"/>
<stop offset="1" stop-color="#0076CF"/>
</linearGradient>
</defs>
</svg>
