<svg width="32" height="24" viewBox="0 0 32 24" fill="none" xmlns="http://www.w3.org/2000/svg">
<rect width="32" height="24" rx="4" fill="#F6F6FA"/>
<path fill-rule="evenodd" clip-rule="evenodd" d="M16.4709 10.1782C16.453 11.5858 17.7254 12.3713 18.6838 12.8384C19.6686 13.3176 19.9994 13.6249 19.9956 14.0534C19.9881 14.7093 19.21 14.9987 18.4818 15.0099C17.2113 15.0296 16.4727 14.667 15.8855 14.3926L15.4279 16.5341C16.017 16.8057 17.108 17.0425 18.2394 17.0528C20.8949 17.0528 22.6323 15.742 22.6418 13.7095C22.6521 11.1301 19.0738 10.9872 19.0982 9.83424C19.1067 9.4847 19.4403 9.11161 20.1713 9.01671C20.5331 8.96884 21.532 8.93215 22.6643 9.45364L23.1087 7.38174C22.4998 7.15995 21.7171 6.94755 20.7427 6.94755C18.2431 6.94755 16.485 8.27625 16.4709 10.1782ZM27.3796 7.12607C26.8947 7.12607 26.4859 7.40896 26.3037 7.84307L22.5102 16.9006H25.1638L25.6919 15.4412H28.9347L29.241 16.9006H31.5799L29.5389 7.12607H27.3796ZM27.7507 9.76657L28.5165 13.4369H26.4192L27.7507 9.76657ZM13.2535 7.12607L11.1618 16.9006H13.6904L15.7812 7.12607H13.2535ZM9.51266 7.12607L6.88061 13.7789L5.81595 8.12213C5.69101 7.49072 5.19768 7.12607 4.64982 7.12607H0.347122L0.286962 7.4099C1.17028 7.60157 2.17385 7.91074 2.78179 8.24151C3.15386 8.44351 3.2601 8.62015 3.38222 9.10034L5.39874 16.9006H8.07123L12.1682 7.12607H9.51266Z" fill="#1434CB"/>
</svg>
