
<svg width="20" height="20" viewBox="0 0 20 20" xmlns="http://www.w3.org/2000/svg">
  <path fill-rule="evenodd" clip-rule="evenodd" d="M3.03386 4.05857C2.2658 4.75224 1.76675 5.83284 1.99484 7.42928C2.22323 9.02783 3.26485 10.6852 4.80427 12.3478C6.25856 13.9184 8.10953 15.4437 9.99986 16.874C11.8902 15.4437 13.7412 13.9184 15.1955 12.3478C16.7349 10.6852 17.7765 9.02783 18.0049 7.4293C18.2329 5.83285 17.7339 4.75224 16.9658 4.05856C16.1765 3.34572 15.0549 3 13.9999 3C12.1318 3 11.0922 4.08479 10.5176 4.68443C10.458 4.7466 10.4034 4.80356 10.3534 4.85355C10.1582 5.04882 9.84157 5.04882 9.64631 4.85355C9.59632 4.80356 9.54173 4.7466 9.48215 4.68443C8.90748 4.08479 7.86788 3 5.99986 3C4.94486 3 3.82316 3.34573 3.03386 4.05857ZM2.36361 3.31643C3.3736 2.40427 4.75192 2 5.99986 2C8.07114 2 9.3453 3.11257 9.99986 3.77862C10.6544 3.11257 11.9286 2 13.9999 2C15.2478 2 16.6261 2.40428 17.6361 3.31644C18.6673 4.24776 19.2668 5.66715 18.9948 7.5707C18.7232 9.47217 17.5148 11.3148 15.9293 13.0272C14.3354 14.7486 12.3063 16.3952 10.2999 17.9C10.1221 18.0333 9.87764 18.0333 9.69986 17.9C7.69344 16.3952 5.66434 14.7485 4.0705 13.0272C2.48494 11.3148 1.27656 9.47217 1.00489 7.57072C0.732921 5.66716 1.3324 4.24776 2.36361 3.31643Z" style="fill: black;"/>
</svg>
